<svg width="19" height="19" fill="none" xmlns="http://www.w3.org/2000/svg"><path d="M9.502 18.29c-2.477 0-2.77-.012-3.736-.055a6.629 6.629 0 01-2.2-.453 4.65 4.65 0 01-2.648-2.649 6.637 6.637 0 01-.421-2.202C.44 11.967.44 11.651.44 9.193c0-2.484.013-2.774.057-3.735a6.635 6.635 0 01.421-2.2A4.642 4.642 0 013.57.609a6.578 6.578 0 012.2-.422C6.728.13 7.045.13 9.501.13c2.497 0 2.784.013 3.735.055.754.014 1.5.157 2.205.423a4.646 4.646 0 012.651 2.65c.27.714.413 1.469.424 2.232.056.964.056 1.28.056 3.736 0 2.457-.014 2.779-.056 3.732a6.646 6.646 0 01-.423 2.205 4.655 4.655 0 01-2.652 2.65 6.658 6.658 0 01-2.2.421c-.962.056-1.278.056-3.74.056zM9.468 1.726c-2.463 0-2.719.012-3.68.056a5.023 5.023 0 00-1.68.313 3.01 3.01 0 00-1.732 1.723 5.05 5.05 0 00-.313 1.699c-.053.976-.053 1.231-.053 3.677 0 2.416.009 2.71.053 3.679.01.574.115 1.143.313 1.681a3.012 3.012 0 001.731 1.723 4.946 4.946 0 001.68.313c.975.057 1.232.057 3.68.057 2.47 0 2.726-.012 3.68-.057a5 5 0 001.681-.313 3.02 3.02 0 001.722-1.72c.2-.545.306-1.12.313-1.7h.01c.044-.963.044-1.22.044-3.68 0-2.459-.01-2.718-.054-3.68a5.09 5.09 0 00-.313-1.679 3.02 3.02 0 00-1.722-1.723 4.978 4.978 0 00-1.681-.313c-.974-.056-1.229-.056-3.68-.056zm.034 12.119a4.655 4.655 0 11-.006-9.31 4.655 4.655 0 01.006 9.31zm0-7.679a3.02 3.02 0 103.02 3.02 3.028 3.028 0 00-3.02-3.02zm4.833-.718a1.085 1.085 0 11.008-2.17 1.085 1.085 0 01-.008 2.17z" fill="#CC2439"/></svg>