<svg width="22" height="18" fill="none" xmlns="http://www.w3.org/2000/svg"><path d="M18.862 2.84a4.33 4.33 0 001.9-2.39 8.65 8.65 0 01-2.744 1.047 4.33 4.33 0 00-7.366 3.942A12.267 12.267 0 011.748.924a4.33 4.33 0 001.337 5.77 4.305 4.305 0 01-1.957-.542v.054c0 2.057 1.45 3.83 3.467 4.237a4.33 4.33 0 01-1.951.075 4.33 4.33 0 004.036 3 8.669 8.669 0 01-5.366 1.85c-.345 0-.69-.02-1.032-.06a12.23 12.23 0 006.624 1.941A12.21 12.21 0 0019.199 4.955c0-.188-.004-.374-.013-.559a8.78 8.78 0 002.157-2.237 8.638 8.638 0 01-2.481.68z" fill="#4F4F4F"/></svg>